<svg xmlns="http://www.w3.org/2000/svg" viewBox="0 0 880 320">
  <g>
    <path d="M132.8,469.2V-139.2H747.2V475.2H136.4V469ZM523.4,145.13a78,78,0,0,0,8.45,1.16c11.69.43,22.82-2.22,33.51-6.74,18.52-7.85,29-21.72,29.45-42,.55-26.28.33-52.58.33-78.88a33.54,33.54,0,0,0-1.24-8.24c-.59-2.27-2.39-4.13-4.79-3.64-1.29.26-2.71,2.13-3.23,3.58-4,11.24-9,21.94-16,31.68-7.65,10.61-17,18.94-29.13,24.12C531,70.35,520.83,70.89,510.47,71c-7.39.07-14.77.94-22.42,1.47,4.19,5,8.11,9.26,11.56,13.88,6.66,8.92,9.45,19.28,10.41,30.2,2.17,24.78-5.77,45.42-25.46,61.05-7,5.55-15.14,8.63-24,10,0,.49-.12.88-.12,1.27q0,46.35,0,92.68a10.23,10.23,0,0,0,.63,3.51,6.72,6.72,0,0,0,6.41,4.57c3,.13,4.7-1.68,5.55-4.18a20.58,20.58,0,0,0,1.2-6.38c.11-23.3.52-46.61-.11-69.88-.2-7.29,1.93-11.43,8.37-13.75a6,6,0,0,1,3.71-.25c3.65,1.35,7.14,3.11,10.76,4.54,20.49,8.1,40,6.26,58.08-6.44,8.71-6.11,15.42-13.9,17.09-25a15.39,15.39,0,0,0-.15-2.65c-1.73.88-3,1.42-4.14,2.15-6.75,4.27-13.33,8.81-20.23,12.82-10,5.83-20.78,9.24-32.57,7.78a28.82,28.82,0,0,1-14-5.18c3.61-3.91,7.24-7.44,10.36-11.38,1.55-1.95,2.89-2.29,5-1.44,1,.42,2.09.71,3.12,1.08a50.67,50.67,0,0,0,28.84,1.91c18-3.91,33.22-16.66,36.5-35.91.47-2.73.54-5.53.8-8.3l-1.1-.42a59.5,59.5,0,0,0-5.67,5.55c-8.3,10.5-17.48,19.52-31,23.42-10,2.9-19.61,1.75-29.11-.44Q521.24,151,523.4,145.13ZM394.34,73.07a9.37,9.37,0,0,0-1.49-.33c-9-.63-17.91-1.51-26.88-1.8-17.29-.58-31.5-7.74-42.89-20.28a132,132,0,0,1-24.75-40.43c-.78-1.94-1.58-4.16-4.36-3.65-2.53.47-3.6,2.4-3.84,4.75a86.82,86.82,0,0,0-.57,8.67q-.1,37.78-.05,75.59a65.54,65.54,0,0,0,.9,11c1.55,8.92,6.49,15.85,12.92,22.08,11.87,11.5,26.25,16.76,42.4,17.63,4.8.26,9.66-.56,14.76-.9-1,4.45,1.17,8,4.19,11.49-2.25.48-4,.56-5.52,1.22-8.18,3.54-16.09,1.7-23.85-1.24-8.94-3.39-16.28-9.17-22.86-16-4.37-4.55-9-8.83-13.86-13.54-.78,12.34.5,18.08,5.79,25.38a52.15,52.15,0,0,0,24,18.28c7.67,2.94,15.81,4.53,24.09,2.88,5.18-1,10.24-2.7,15.38-3.92a3.52,3.52,0,0,1,2.86.66c3.77,3.84,7.38,7.84,11,11.8a8.26,8.26,0,0,1,.83,1.64c-7.53,3.28-14.89,6-23.16,4.86-12.42-1.71-23.13-7.16-33-14.66-4.74-3.59-9.73-6.84-14.8-10.38-2.21,4.48-.5,8,1.17,11.31,5.78,11.51,15.4,19.07,26.71,24.41,10.17,4.8,21,6.65,32.1,3.59a147.9,147.9,0,0,0,21.4-7.61c3.59-1.62,5.66-.92,8.42,1.16,2.24,1.69,1.52,3.65,1.52,5.62q0,38.1,0,76.19c0,1.1,0,2.21.06,3.3.39,4.19,3.14,7.46,6.57,7.89s6.15-1.65,7.52-5.94A22.64,22.64,0,0,0,418,277q0-37.8-.07-75.59c0-4.68,0-9.36,0-13.27-24.93-9.51-39.95-27-45.32-52S375.45,90.15,394.34,73.07Zm51.57,96.83c2.46-.47,4.62-.84,6.76-1.32,19-4.24,33.29-14.44,40.19-33.1,5.59-15.13,4.22-30.06-4.88-43.51s-22.11-22-38.22-25.38a4,4,0,0,1-2.26-2.14c-3-6.77-2.21-13.89-1.57-20.94a16.77,16.77,0,0,1,5.63-11.23,32,32,0,0,0,4.2-4.65c2-2.73,1.49-4.14-1.74-5.32-6.83-2.49-14.63.69-18.57,7.67-3.14,5.59-3.6,11.76-3.61,18s0,12.32,0,18.44c-1.1.31-1.84.59-2.61.73-13,2.36-23.24,9.23-32.14,18.89-12.78,13.9-15.29,39.12-6.15,55,8.38,14.54,21,23.5,37.17,27.6,2.82.72,3.7,1.87,3.69,4.81q-.15,66.29,0,132.57a18,18,0,0,0,.71,5c.78,2.63,2.28,4.77,5.35,4.91s5.45-1.27,6.22-4.16a43.58,43.58,0,0,0,1.75-10.83c.16-28.39.11-56.78.12-85.18C445.92,200.55,445.91,185.36,445.91,169.9Z" style="fill: #fff"/>
    <path d="M523.4,145.13q-2.16,5.84-4.52,12.2c9.5,2.19,19.08,3.34,29.11.44,13.48-3.9,22.66-12.92,31-23.42a59.5,59.5,0,0,1,5.67-5.55l1.1.42c-.26,2.77-.33,5.57-.8,8.3-3.28,19.25-18.48,32-36.5,35.91a50.67,50.67,0,0,1-28.84-1.91c-1-.37-2.1-.66-3.12-1.08-2.06-.85-3.4-.51-5,1.44-3.12,3.94-6.75,7.47-10.36,11.38a28.82,28.82,0,0,0,14,5.18c11.79,1.46,22.55-1.95,32.57-7.78,6.9-4,13.48-8.55,20.23-12.82,1.14-.73,2.41-1.27,4.14-2.15a15.39,15.39,0,0,1,.15,2.65c-1.67,11.06-8.38,18.85-17.09,25C537,206,517.51,207.84,497,199.74c-3.62-1.43-7.11-3.19-10.76-4.54a6,6,0,0,0-3.71.25c-6.44,2.32-8.57,6.46-8.37,13.75.63,23.27.22,46.58.11,69.88a20.58,20.58,0,0,1-1.2,6.38c-.85,2.5-2.58,4.31-5.55,4.18a6.72,6.72,0,0,1-6.41-4.57,10.23,10.23,0,0,1-.63-3.51q0-46.34,0-92.68c0-.39.08-.78.12-1.27,8.82-1.4,17-4.48,24-10C504.25,162,512.19,141.31,510,116.53c-1-10.92-3.75-21.28-10.41-30.2-3.45-4.62-7.37-8.88-11.56-13.88,7.65-.53,15-1.4,22.42-1.47,10.36-.09,20.53-.63,30.24-4.77C552.84,61,562.19,52.7,569.84,42.09c7-9.74,12-20.44,16-31.68.52-1.45,1.94-3.32,3.23-3.58,2.4-.49,4.2,1.37,4.79,3.64a33.54,33.54,0,0,1,1.24,8.24c0,26.3.22,52.6-.33,78.88-.43,20.24-10.93,34.11-29.45,42-10.69,4.52-21.82,7.17-33.51,6.74A78,78,0,0,1,523.4,145.13Zm57.89-94.67C574.6,62,565.11,70.38,553.52,76.51a74.41,74.41,0,0,1-37.58,9c2.18,4.82,4.15,9.27,6.24,13.66a2.31,2.31,0,0,0,1.7,1.1c6.35,0,12.87.85,19-.28,14.59-2.66,26.4-9.92,33.33-23.68C580.33,68.22,580.64,59.31,581.29,50.46Zm-56.68,62.67c1.17,6.43,3.95,12.46.14,19.16,4.07,0,7.47.27,10.82,0a63.59,63.59,0,0,0,37.37-16.47c7-6.3,9.4-14.73,9.87-24.35C576.15,109.18,544.36,119.52,524.61,113.13Z"/>
    <path d="M394.34,73.07c-18.89,17.08-27.06,38.09-21.72,63.05s20.39,42.52,45.32,52c0,3.91,0,8.59,0,13.27q0,37.8.07,75.59a22.64,22.64,0,0,1-.95,6.76c-1.37,4.29-4.23,6.35-7.52,5.94s-6.18-3.7-6.57-7.89c-.1-1.09-.06-2.2-.06-3.3q0-38.08,0-76.19c0-2,.72-3.93-1.52-5.62-2.76-2.08-4.83-2.78-8.42-1.16a147.9,147.9,0,0,1-21.4,7.61c-11.06,3.06-21.93,1.21-32.1-3.59-11.31-5.34-20.93-12.9-26.71-24.41-1.67-3.33-3.38-6.83-1.17-11.31,5.07,3.54,10.06,6.79,14.8,10.38,9.87,7.5,20.58,13,33,14.66,8.27,1.13,15.63-1.58,23.16-4.86a8.26,8.26,0,0,0-.83-1.64c-3.64-4-7.25-8-11-11.8a3.52,3.52,0,0,0-2.86-.66c-5.14,1.22-10.2,2.88-15.38,3.92-8.28,1.65-16.42.06-24.09-2.88a52.15,52.15,0,0,1-24-18.28c-5.29-7.3-6.57-13-5.79-25.38,4.84,4.71,9.49,9,13.86,13.54,6.58,6.87,13.92,12.65,22.86,16,7.76,2.94,15.67,4.78,23.85,1.24,1.51-.66,3.27-.74,5.52-1.22-3-3.5-5.22-7-4.19-11.49-5.1.34-10,1.16-14.76.9-16.15-.87-30.53-6.13-42.4-17.63-6.43-6.23-11.37-13.16-12.92-22.08a65.54,65.54,0,0,1-.9-11q-.09-37.8.05-75.59a86.82,86.82,0,0,1,.57-8.67c.24-2.35,1.31-4.28,3.84-4.75,2.78-.51,3.58,1.71,4.36,3.65a132,132,0,0,0,24.75,40.43c11.39,12.54,25.6,19.7,42.89,20.28,9,.29,17.92,1.17,26.88,1.8A9.37,9.37,0,0,1,394.34,73.07Zm-90-23.8-1,.54c1.15,5.2,2.15,10.45,3.47,15.6,3.82,14.85,12.66,25.46,26.8,31.69,7.5,3.31,15.15,4.88,23.28,3.62.92-.14,2.29-.48,2.55-1.1,2-4.62,3.69-9.33,5.4-13.78C337.88,84.72,319,70.44,304.29,49.27Zm-3.38,38.86c0-.13-.12.12-.1.36.16,1.59.34,3.17.56,4.75C303,105,308,114.59,318,121.45a65.77,65.77,0,0,0,26.44,10.61c4.12.71,8.38.54,12.21.75V114.26C332.65,117.39,314.68,107.35,300.91,88.13Z"/>
    <path d="M445.91,169.9c0,15.46,0,30.65,0,45.83,0,28.4,0,56.79-.12,85.18A43.58,43.58,0,0,1,444,311.74c-.77,2.89-3.2,4.29-6.22,4.16s-4.57-2.28-5.35-4.91a18,18,0,0,1-.71-5q-.06-66.28,0-132.57c0-2.94-.87-4.09-3.69-4.81-16.14-4.1-28.79-13.06-37.17-27.6-9.14-15.85-6.63-41.07,6.15-55,8.9-9.66,19.1-16.53,32.14-18.89.77-.14,1.51-.42,2.61-.73,0-6.12,0-12.28,0-18.44s.47-12.41,3.61-18c3.94-7,11.74-10.16,18.57-7.67,3.23,1.18,3.76,2.59,1.74,5.32a32,32,0,0,1-4.2,4.65,16.77,16.77,0,0,0-5.63,11.23c-.64,7.05-1.44,14.17,1.57,20.94a4,4,0,0,0,2.26,2.14C465.87,70,478.81,78.44,488,92s10.47,28.38,4.88,43.51c-6.9,18.66-21.2,28.86-40.19,33.1C450.53,169.06,448.37,169.43,445.91,169.9Zm-5-89.1c-15.13-.5-29.47,8-37,21.66-5.47,10-5.87,20.18-.77,30.38a39.52,39.52,0,0,0,15.59,16.9c16.72,9.81,34.05,7.72,48.42-3.34,15.32-11.8,18.48-32.13,7.47-47.25C466.25,87.59,454.89,80.73,440.93,80.8Z"/>
    <path d="M581.29,50.46c-.65,8.85-1,17.76-5.06,25.9-6.93,13.76-18.74,21-33.33,23.68-6.15,1.13-12.67.31-19,.28a2.31,2.31,0,0,1-1.7-1.1c-2.09-4.39-4.06-8.84-6.24-13.66a74.41,74.41,0,0,0,37.58-9C565.11,70.38,574.6,62,581.29,50.46Z" style="fill: #fff"/>
    <path d="M524.61,113.13c19.75,6.39,51.54-3.95,58.2-21.71-.47,9.62-2.91,18-9.87,24.35a63.59,63.59,0,0,1-37.37,16.47c-3.35.32-6.75,0-10.82,0C528.56,125.59,525.78,119.56,524.61,113.13Z" style="fill: #fff"/>
    <path d="M304.29,49.27C319,70.44,337.88,84.72,364.81,85.84c-1.71,4.45-3.44,9.16-5.4,13.78-.26.62-1.63,1-2.55,1.1-8.13,1.26-15.78-.31-23.28-3.62-14.14-6.23-23-16.84-26.8-31.69-1.32-5.15-2.32-10.4-3.47-15.6Z" style="fill: #fff"/>
    <path d="M300.91,88.13c13.77,19.22,31.74,29.26,55.78,26.13v18.55c-3.83-.21-8.09,0-12.21-.75A65.77,65.77,0,0,1,318,121.45C308,114.59,303,105,301.37,93.24c-.22-1.58-.4-3.16-.56-4.75C300.79,88.25,301,88,300.91,88.13Z" style="fill: #fff"/>
    <path d="M440.93,80.8c14-.07,25.32,6.79,33.74,18.35,11,15.12,7.85,35.45-7.47,47.25-14.37,11.06-31.7,13.15-48.42,3.34a39.52,39.52,0,0,1-15.59-16.9c-5.1-10.2-4.7-20.43.77-30.38C411.46,88.83,425.8,80.3,440.93,80.8Zm-2.82,54.89c12.15-.14,20.91-4.25,27.65-12.12,1.93-2.26,2.91-5.65,3.48-8.69.64-3.39-1.29-5.47-4.8-6.46-3.17-.9-5.64.43-7.53,3.22s-3.88,6-6.63,7.82c-7.76,5.08-22.56,3.53-27.94-6.33a16.85,16.85,0,0,0-1.61-2.52,6.75,6.75,0,0,0-8.37-1.56c-2.48,1.21-3.49,3.57-2.46,6.84a19.1,19.1,0,0,0,2.87,5.85A35.58,35.58,0,0,0,438.11,135.69Z" style="fill: #fff"/>
    <path d="M438.11,135.69a35.58,35.58,0,0,1-25.34-14,19.1,19.1,0,0,1-2.87-5.85c-1-3.27,0-5.63,2.46-6.84a6.75,6.75,0,0,1,8.37,1.56,16.85,16.85,0,0,1,1.61,2.52c5.38,9.86,20.18,11.41,27.94,6.33,2.75-1.8,4.71-5,6.63-7.82s4.36-4.12,7.53-3.22c3.51,1,5.44,3.07,4.8,6.46-.57,3-1.55,6.43-3.48,8.69C459,131.44,450.26,135.55,438.11,135.69Z"/>
  </g>
</svg>
